# xmcd
#
# Track frame offsets:
#	150
#	21222
#	35850
#	61500
#	75452
#	120602
#	154516
#
# Disc length: 2454 seconds
#
# Revision: 0
# Processed by: cddbd v1.5.2PL0 Copyright (c) Steve Scherf et al.
# Submitted via: audiograbber 1.83.01
#
DISCID=49099407
DTITLE=Thorogood,George&the Destroyers - Live at Rockpalast - Dortmund 1980 [CD
DTITLE=1)
DYEAR=2017
DGENRE=Blues
TTITLE0=House of blue lights
TTITLE1=Kids from Philly
TTITLE2=I'm wanted
TTITLE3=Cocaine Blues
TTITLE4=House Rent Blues/One Scotch,One Bourbon,One Beer
TTITLE5=It wasn't me
TTITLE6=Madison Blues
EXTD=
EXTT0=
EXTT1=
EXTT2=
EXTT3=
EXTT4=
EXTT5=
EXTT6=
PLAYORDER=
